<?xml version="1.0" encoding="UTF-8"?>
<svg version="1.1" xmlns="http://www.w3.org/2000/svg" width="768" height="768">
<path d="M0 0 C6.35155403 -0.107062 12.43721345 0.26228174 18.73564148 1.04953003 C19.6742314 1.16245836 20.61282132 1.2753867 21.57985336 1.3917371 C24.70321492 1.76888115 27.82557919 2.15370938 30.94799805 2.53857422 C33.19566521 2.8116342 35.44338809 3.08423588 37.69116211 3.35641479 C43.7803109 4.09522408 49.86860121 4.84089304 55.95671821 5.58815145 C61.04130778 6.21157957 66.12631186 6.83158838 71.21132118 7.45158207 C83.8894878 8.99740809 96.56684546 10.54973895 109.24383406 12.10518672 C119.56267646 13.37112005 129.88225801 14.63087632 140.20239258 15.88623047 C152.19984149 17.34561622 164.19676001 18.80923555 176.19295532 20.27890027 C182.53859574 21.05628566 188.88443773 21.8319162 195.23084068 22.60305405 C201.19461197 23.32794641 207.15760965 24.0588989 213.12006378 24.79454422 C215.30874997 25.06356641 217.49769888 25.33046088 219.68692207 25.59507751 C222.67379349 25.9564551 225.65962072 26.32549888 228.64530945 26.69650269 C229.51272048 26.79962355 230.38013152 26.90274442 231.27382773 27.00899017 C238.30444984 27.89660934 243.5448958 28.82591314 248.3125 34.4375 C249.47265625 35.78714844 249.47265625 35.78714844 250.65625 37.1640625 C253.64688399 40.78272963 256.59997749 44.4308622 259.55078125 48.08203125 C262.75680918 51.90165304 266.14989784 55.5246441 269.55786133 59.16333008 C273.45968389 63.35293609 277.07310178 67.72154714 280.65625 72.1875 C283.33208171 75.39849805 286.14358276 78.45029137 289 81.5 C293.43708061 86.23733418 297.58952308 91.11797161 301.65234375 96.18359375 C304.82799813 99.99332222 308.21207924 103.58799427 311.60253906 107.20581055 C316.00250405 111.93072446 320.06860258 116.87762042 324 122 C328.15384233 120.4410988 330.46928633 117.40282821 333.1875 114.0625 C333.67307373 113.47694336 334.15864746 112.89138672 334.65893555 112.28808594 C336.11302701 110.53106868 337.55754414 108.76657456 339 107 C339.73476563 106.10667969 340.46953125 105.21335937 341.2265625 104.29296875 C342.65262902 102.55444946 344.0756696 100.81344482 345.49609375 99.0703125 C353.30791948 89.49138111 361.15972837 79.94770048 369.16748047 70.53173828 C372.73332021 66.33314325 376.21974609 62.07412002 379.6953125 57.80078125 C382.22033075 54.73224213 384.79484769 51.70960188 387.375 48.6875 C391.15795566 44.25144792 394.80460626 39.73346465 398.375 35.125 C402.46043383 29.8720869 406.67122368 24.74197226 411 19.6875 C411.55220215 19.03475098 412.1044043 18.38200195 412.67333984 17.70947266 C416.64446606 13.11851131 416.64446606 13.11851131 420 12 C422.18728375 13.44063307 424.11846417 14.89673897 426.125 16.5625 C427.04055664 17.30209961 427.04055664 17.30209961 427.97460938 18.05664062 C429.99288047 19.69280198 431.99739572 21.34470911 434 23 C435.40358263 24.15502472 436.80722922 25.30997173 438.2109375 26.46484375 C440.36927276 28.242572 442.52631407 30.02178499 444.68017578 31.80493164 C449.07125313 35.43542405 453.50388137 39.00063788 458 42.5 C464.07797735 47.23133321 470.02722281 52.10880475 475.96264648 57.01733398 C480.39712075 60.68384643 484.85818335 64.31102259 489.36328125 67.890625 C492.84407105 70.67525684 496.29518783 73.49574972 499.75 76.3125 C504.77350909 80.40577313 509.82673899 84.45376519 514.9375 88.4375 C521.03360088 93.19238838 527.00475987 98.09029965 532.96240234 103.01708984 C537.39190062 106.67957543 541.84824354 110.30244999 546.34765625 113.87890625 C549.91528658 116.73195967 553.45695613 119.61650674 557 122.5 C561.32090365 126.01580965 565.64434055 129.5272445 570 133 C575.06702315 137.03992386 580.09054617 141.13271376 585.1171875 145.22265625 C589.50320198 148.78939633 593.9071901 152.33207265 598.328125 155.85546875 C601.12289236 158.09863729 603.90175056 160.3605123 606.67944336 162.62475586 C612.39249644 167.28155764 618.12427987 171.90621251 623.9375 176.4375 C629.97512111 181.14677483 635.895514 185.99027517 641.78881836 190.87866211 C642.45147705 191.4278833 643.11413574 191.97710449 643.796875 192.54296875 C644.42416423 193.07874198 645.05145347 193.61451521 645.69775146 194.16652399 C647.97805657 196.05581888 647.97805657 196.05581888 650.57340151 197.59688038 C654.56557645 200.23273505 657.51641662 202.2524039 658.82775009 206.99136174 C659.03720307 210.69149132 658.92385298 214.25877999 658.69859314 217.95826721 C658.6501569 219.37113727 658.60659369 220.78418141 658.56748956 222.19734055 C658.47548479 225.2283314 658.35382725 228.25612458 658.20973468 231.28507924 C657.99086944 235.97734878 657.86379993 240.66906258 657.75610542 245.3650341 C657.53032722 254.8526511 657.22811721 264.33697382 656.91560018 273.8220793 C656.75436805 278.7507228 656.59917463 283.67955746 656.44314575 288.60836792 C656.13826737 298.20980263 655.82798125 307.81105488 655.51569552 317.41225123 C655.15156393 328.61303489 654.79271251 339.813986 654.43396913 351.01494331 C653.79385258 370.99488379 653.14867379 390.97465759 652.50073242 410.9543457 C651.87278699 430.317492 651.24903525 449.6807678 650.62963867 469.04418945 C649.95306175 490.19498603 649.27426131 511.34570896 648.59151691 532.49630743 C648.51875834 534.75034652 648.44600048 537.00438563 648.37324333 539.25842476 C648.31955425 540.92156272 648.31955425 540.92156272 648.26478054 542.61829944 C648.01307743 550.41955104 647.76290233 558.22085078 647.51327705 566.02216911 C647.20944727 575.51543067 646.9030167 585.00860417 646.59329409 594.50167536 C646.43545225 599.34131975 646.27873141 604.18099335 646.12508583 609.02077293 C645.98437991 613.45183351 645.84038343 617.8827746 645.6937803 622.31364388 C645.6413856 623.91441211 645.59017926 625.51521978 645.54029591 627.11606824 C644.85072125 649.18657946 644.85072125 649.18657946 642.25717163 651.66641235 C641.44317902 651.94745819 640.6291864 652.22850403 639.79052734 652.51806641 C638.78624695 652.89699036 637.78196655 653.27591431 636.74725342 653.6663208 C635.51065979 654.10643494 634.27406616 654.54654907 633 655 C630.60807257 655.95256582 628.22676444 656.92955149 625.84424782 657.90540123 C621.02592445 659.87191696 616.18658006 661.78592761 611.3515625 663.7109375 C609.21379561 664.56441105 607.07613292 665.41814567 604.93856812 666.27212524 C599.30832378 668.52080953 593.67690929 670.76654743 588.04516602 673.01147461 C578.06261349 676.99124161 568.08201215 680.97590048 558.1015625 684.9609375 C557.01038431 685.39654432 555.91920612 685.83215115 554.79496193 686.28095818 C540.67184815 691.91993736 526.56205936 697.58985522 512.47398567 703.31578636 C490.2113422 712.36380886 467.90630333 721.30664798 445.60693359 730.26367188 C440.87016639 732.16647022 436.1336428 734.06987452 431.39711952 735.97327995 C417.26597707 741.65192006 403.13370282 747.32773539 389 753 C388.13710106 753.34633736 387.27420212 753.69267471 386.38515472 754.04950714 C381.94751942 755.83048021 377.50950554 757.61050164 373.0706768 759.38849831 C371.26915999 760.11025036 369.46795384 760.83277769 367.66676331 761.55534363 C364.7804739 762.71036493 361.89144552 763.8579591 359 765 C358.20332916 765.31784958 357.40665833 765.63569916 356.58584595 765.96318054 C352.17256001 767.6842366 349.59214746 768.51661712 345 767 C342.37445228 765.61270514 339.94911495 763.98808723 337.5 762.3125 C335.99036671 761.30741613 334.47990788 760.30357142 332.96875 759.30078125 C332.16695313 758.76533691 331.36515625 758.22989258 330.5390625 757.67822266 C326.06655209 754.7220653 321.52993885 751.86703498 317 749 C309.87267063 744.4745274 302.76510782 739.92099104 295.68359375 735.32421875 C289.30656304 731.18873831 282.90398465 727.09358363 276.5 723 C269.42495558 718.47745855 262.35574022 713.94692786 255.3125 709.375 C248.89875012 705.21235057 242.45412481 701.09974136 236 697 C229.44383023 692.83464568 222.89663088 688.65673866 216.375 684.4375 C215.70807129 684.00920898 215.04114258 683.58091797 214.35400391 683.13964844 C210.44175476 680.61881629 206.58281877 678.03480935 202.75 675.39453125 C201.40929443 674.48586304 201.40929443 674.48586304 200.04150391 673.55883789 C198.30368036 672.37997553 196.57612307 671.18579026 194.86083984 669.97436523 C194.06887207 669.44141846 193.2769043 668.90847168 192.4609375 668.359375 C191.76790527 667.87952148 191.07487305 667.39966797 190.36083984 666.90527344 C183.83853476 664.40426959 176.20761752 668.57117877 170.09765625 670.8828125 C169.01728592 671.2846727 167.93691559 671.6865329 166.82380676 672.10057068 C164.47299336 672.97546477 162.12329834 673.85336845 159.77459717 674.73391724 C154.01923125 676.89070084 148.2565995 679.02781515 142.4935379 681.16393471 C141.14416417 681.664132 139.79487611 682.16456046 138.44567108 682.66521263 C123.63064562 688.16165045 108.76540184 693.51476354 93.88863754 698.84140778 C87.82347975 701.01336675 81.7594358 703.18843603 75.6953125 705.36328125 C75.03417891 705.60035042 74.37304531 705.83741959 73.69187737 706.08167267 C59.69766584 711.10041194 45.720633 716.16599332 31.75 721.25 C30.64417572 721.65223785 29.53835144 722.05447571 28.39901733 722.46890259 C16.87473592 726.66159788 5.35505349 730.86665298 -6.15744019 735.09161377 C-9.84718842 736.44564266 -13.53732912 737.79859719 -17.22753906 739.15136719 C-21.86499925 740.85138377 -26.5008279 742.55575152 -31.13574219 744.26269531 C-33.21153219 745.02424217 -35.2873755 745.78564373 -37.36328125 746.546875 C-38.31558121 746.89890991 -39.26788116 747.25094482 -40.2490387 747.61364746 C-41.5475602 748.08864685 -41.5475602 748.08864685 -42.87231445 748.57324219 C-43.62575638 748.85045105 -44.3791983 749.12765991 -45.1554718 749.41326904 C-47 750 -47 750 -49 750 C-47.51120069 741.50680498 -45.20345314 733.27436675 -42.83251953 724.99560547 C-42.40802325 723.50249375 -41.98386391 722.00928621 -41.56001282 720.51599121 C-40.41215288 716.47579982 -39.25939551 712.43702119 -38.10558176 708.39852667 C-36.88484848 704.12317888 -35.66817481 699.84667571 -34.45089722 695.57034302 C-32.39741212 688.35877528 -30.34078276 681.14810999 -28.28222656 673.93798828 C-25.93471281 665.71566536 -23.59183292 657.49203386 -21.25165284 649.26762092 C-18.97337768 641.26114145 -16.69181598 633.25560186 -14.40884018 625.25046158 C-13.45206344 621.89542079 -12.49629205 618.54009641 -11.54144669 615.18450546 C-4.57900844 590.72300375 2.63529102 566.34336592 10 542 C8.73649791 540.8880752 7.47207648 539.77719502 6.20727539 538.66674805 C5.50325089 538.04801315 4.79922638 537.42927826 4.0738678 536.79179382 C1.26787279 534.36745196 -1.62957874 532.0801149 -4.5625 529.8125 C-5.78302641 528.86128539 -7.00306153 527.90944013 -8.22265625 526.95703125 C-8.84414551 526.47186035 -9.46563477 525.98668945 -10.10595703 525.48681641 C-13.25575338 523.01423845 -16.37739394 520.50676664 -19.5 518 C-24.31252939 514.13967235 -29.14311796 510.30437487 -34 506.5 C-39.49425554 502.1963732 -44.95026754 497.84710501 -50.39453125 493.48046875 C-54.57733421 490.12903035 -58.78051354 486.80510565 -63 483.5 C-67.85688673 479.69562145 -72.6871684 475.85995554 -77.5 472 C-82.56734813 467.9379099 -87.64750517 463.89288074 -92.75 459.875 C-93.62688477 459.18277344 -93.62688477 459.18277344 -94.52148438 458.4765625 C-96.96712416 456.55478165 -99.41021147 454.72652569 -102 453 C-100.64946864 449.48648979 -99.11778924 446.15597693 -97.3828125 442.81640625 C-96.86477051 441.81826904 -96.34672852 440.82013184 -95.81298828 439.79174805 C-95.25595215 438.72609619 -94.69891602 437.66044434 -94.125 436.5625 C-93.25270752 434.88957886 -93.25270752 434.88957886 -92.36279297 433.18286133 C-88.2098604 425.24588293 -83.96528262 417.3634513 -79.65600586 409.51049805 C-75.62139477 402.15596342 -71.64401626 394.77180462 -67.6875 387.375 C-67.21922287 386.49968628 -67.21922287 386.49968628 -66.7414856 385.60668945 C-65.46775515 383.22557228 -64.19426113 380.84432897 -62.92118835 378.46286011 C-60.61404102 374.14706508 -58.30397117 369.83284445 -55.9921875 365.51953125 C-55.661548 364.90259399 -55.33090851 364.28565674 -54.99024963 363.65002441 C-53.4182944 360.71700278 -51.8462413 357.7840336 -50.27416992 354.85107422 C-45.83876622 346.5730654 -41.41712787 338.28776991 -37 330 C-61.27291717 321.4810904 -85.55786302 313.02255174 -110 305 C-109.41181424 298.38130713 -107.22999715 292.55942554 -104.94140625 286.3515625 C-104.31810928 284.63612495 -104.31810928 284.63612495 -103.68222046 282.8860321 C-102.55133637 279.7780013 -101.41441877 276.67231003 -100.27463913 273.56753922 C-99.07280859 270.28924308 -97.87885204 267.00808043 -96.68383789 263.72729492 C-93.79957714 255.8143949 -90.90101133 247.90677151 -88 240 C-87.58697632 238.8736615 -87.17395264 237.747323 -86.74841309 236.58685303 C-83.41628468 227.5000897 -80.08024051 218.4147737 -76.73583984 209.33251953 C-70.75626076 193.09035385 -64.84175659 176.82496918 -58.93740845 160.55532837 C-51.94770214 141.30038616 -44.87722554 122.0760384 -37.78082275 102.86019897 C-32.02386362 87.26646586 -26.32695471 71.65385339 -20.73654175 55.99966431 C-16.28571619 43.53791946 -11.76130921 31.10464461 -7.1875 18.6875 C-6.87982697 17.85110992 -6.57215393 17.01471985 -6.25515747 16.15298462 C-5.39420714 13.8136929 -4.53148926 11.47506277 -3.66796875 9.13671875 C-3.4114151 8.43984955 -3.15486145 7.74298035 -2.89053345 7.0249939 C-1.11599774 2.23199549 -1.11599774 2.23199549 0 0 Z " fill="#000000" transform="translate(110,0)"/>
<path d="M0 0 C5.20021749 1.565114 8.75324194 4.86382027 12.8125 8.3125 C14.33028243 9.58256531 15.84852278 10.85208356 17.3671875 12.12109375 C18.13643555 12.76675293 18.90568359 13.41241211 19.69824219 14.07763672 C23.25034134 17.04424986 26.84180938 19.96149574 30.4375 22.875 C31.10821533 23.41938721 31.77893066 23.96377441 32.4699707 24.5246582 C36.73532083 27.9839245 41.0184749 31.42013539 45.3125 34.84375 C49.5979956 38.28211275 53.8553727 41.75501727 58.1171875 45.22265625 C62.50320198 48.78939633 66.9071901 52.33207265 71.328125 55.85546875 C74.12289236 58.09863729 76.90175056 60.3605123 79.67944336 62.62475586 C85.39249644 67.28155764 91.12427987 71.90621251 96.9375 76.4375 C103.03360088 81.19238838 109.00475987 86.09029965 114.96240234 91.01708984 C119.39190062 94.67957543 123.84824354 98.30244999 128.34765625 101.87890625 C131.91528658 104.73195967 135.45695613 107.61650674 139 110.5 C143.32090365 114.01580965 147.64434055 117.5272445 152 121 C157.06702315 125.03992386 162.09054617 129.13271376 167.1171875 133.22265625 C171.50320198 136.78939633 175.9071901 140.33207265 180.328125 143.85546875 C183.12289236 146.09863729 185.90175056 148.3605123 188.67944336 150.62475586 C194.39249644 155.28155764 200.12427987 159.90621251 205.9375 164.4375 C211.97512111 169.14677483 217.895514 173.99027517 223.78881836 178.87866211 C224.45147705 179.4278833 225.11413574 179.97710449 225.796875 180.54296875 C226.73780885 181.3466286 226.73780885 181.3466286 227.69775146 182.16652399 C229.97805657 184.05581888 229.97805657 184.05581888 232.57340151 185.59688038 C236.56557645 188.23273505 239.51641662 190.2524039 240.82775009 194.99136174 C241.03720307 198.69149132 240.92385298 202.25877999 240.69859314 205.95826721 C240.6501569 207.37113727 240.60659369 208.78418141 240.56748956 210.19734055 C240.47548479 213.2283314 240.35382725 216.25612458 240.20973468 219.28507924 C239.99086944 223.97734878 239.86379993 228.66906258 239.75610542 233.3650341 C239.53032722 242.8526511 239.22811721 252.33697382 238.91560018 261.8220793 C238.75436805 266.7507228 238.59917463 271.67955746 238.44314575 276.60836792 C238.13826737 286.20980263 237.82798125 295.81105488 237.51569552 305.41225123 C237.15156393 316.61303489 236.79271251 327.813986 236.43396913 339.01494331 C235.79385258 358.99488379 235.14867379 378.97465759 234.50073242 398.9543457 C233.87278699 418.317492 233.24903525 437.6807678 232.62963867 457.04418945 C231.95306175 478.19498603 231.27426131 499.34570896 230.59151691 520.49630743 C230.51875834 522.75034652 230.44600048 525.00438563 230.37324333 527.25842476 C230.31955425 528.92156272 230.31955425 528.92156272 230.26478054 530.61829944 C230.01307743 538.41955104 229.76290233 546.22085078 229.51327705 554.02216911 C229.20944727 563.51543067 228.9030167 573.00860417 228.59329409 582.50167536 C228.43545225 587.34131975 228.27873141 592.18099335 228.12508583 597.02077293 C227.98437991 601.45183351 227.84038343 605.8827746 227.6937803 610.31364388 C227.6413856 611.91441211 227.59017926 613.51521978 227.54029591 615.11606824 C226.85072125 637.18657946 226.85072125 637.18657946 224.25717163 639.66641235 C223.44317902 639.94745819 222.6291864 640.22850403 221.79052734 640.51806641 C220.78624695 640.89699036 219.78196655 641.27591431 218.74725342 641.6663208 C217.51065979 642.10643494 216.27406616 642.54654907 215 643 C212.60807257 643.95256582 210.22676444 644.92955149 207.84424782 645.90540123 C203.02592445 647.87191696 198.18658006 649.78592761 193.3515625 651.7109375 C191.21379561 652.56441105 189.07613292 653.41814567 186.93856812 654.27212524 C181.30832378 656.52080953 175.67690929 658.76654743 170.04516602 661.01147461 C160.06261349 664.99124161 150.08201215 668.97590048 140.1015625 672.9609375 C139.01038431 673.39654432 137.91920612 673.83215115 136.79496193 674.28095818 C122.67184815 679.91993736 108.56205936 685.58985522 94.47398567 691.31578636 C72.2113422 700.36380886 49.90630333 709.30664798 27.60693359 718.26367188 C22.87016639 720.16647022 18.1336428 722.06987452 13.39711952 723.97327995 C-0.73402293 729.65192006 -14.86629718 735.32773539 -29 741 C-29.86289894 741.34633736 -30.72579788 741.69267471 -31.61484528 742.04950714 C-36.05248058 743.83048021 -40.49049446 745.61050164 -44.9293232 747.38849831 C-46.73084001 748.11025036 -48.53204616 748.83277769 -50.33323669 749.55534363 C-53.2195261 750.71036493 -56.10855448 751.8579591 -59 753 C-59.79667084 753.31784958 -60.59334167 753.63569916 -61.41415405 753.96318054 C-65.82743999 755.6842366 -68.40785254 756.51661712 -73 755 C-75.62554772 753.61270514 -78.05088505 751.98808723 -80.5 750.3125 C-82.00963329 749.30741613 -83.52009212 748.30357142 -85.03125 747.30078125 C-85.83304688 746.76533691 -86.63484375 746.22989258 -87.4609375 745.67822266 C-91.93344791 742.7220653 -96.47006115 739.86703498 -101 737 C-108.12732937 732.4745274 -115.23489218 727.92099104 -122.31640625 723.32421875 C-128.69343696 719.18873831 -135.09601535 715.09358363 -141.5 711 C-148.57504442 706.47745855 -155.64425978 701.94692786 -162.6875 697.375 C-169.10124988 693.21235057 -175.54587519 689.09974136 -182 685 C-191.36592442 679.04951441 -200.69625068 673.0471357 -210 667 C-210.88155762 666.42733398 -211.76311523 665.85466797 -212.67138672 665.26464844 C-218.44877866 661.51159072 -224.22497192 657.75669403 -230 654 C-229 651 -229 651 -227.25694275 650.05441284 C-226.49660233 649.78621735 -225.7362619 649.51802185 -224.95288086 649.24169922 C-224.08867523 648.93028488 -223.2244696 648.61887054 -222.33407593 648.29801941 C-221.38722931 647.97021988 -220.44038269 647.64242035 -219.46484375 647.3046875 C-217.99792587 646.78162773 -217.99792587 646.78162773 -216.50137329 646.2480011 C-214.40412489 645.50149246 -212.30505062 644.76009771 -210.20437622 644.02328491 C-206.941493 642.87640351 -203.6857328 641.71117703 -200.43139648 640.5402832 C-191.5912653 637.36550661 -182.75044741 634.21400113 -173.8203125 631.30078125 C-159.88267323 626.78762991 -159.88267323 626.78762991 -151.00390625 615.6015625 C-150.28997796 613.75146039 -149.62710218 611.88130653 -149 610 C-68.15 610 12.7 610 96 610 C96 453.58 96 297.16 96 136 C40.23 136 -15.54 136 -73 136 C-84.85546875 122.95898438 -84.85546875 122.95898438 -88.125 119.0625 C-88.87007812 118.18722656 -89.61515625 117.31195313 -90.3828125 116.41015625 C-92 114 -92 114 -92 110 C-90.94946289 108.34350586 -90.94946289 108.34350586 -89.47265625 106.71484375 C-88.93261963 106.10785645 -88.39258301 105.50086914 -87.83618164 104.87548828 C-87.2508667 104.23595215 -86.66555176 103.59641602 -86.0625 102.9375 C-84.85302263 101.58044584 -83.64469276 100.22236813 -82.4375 98.86328125 C-81.84453125 98.20021973 -81.2515625 97.5371582 -80.640625 96.85400391 C-77.80529062 93.64990728 -75.12801218 90.32229208 -72.43359375 87 C-64.66773866 77.42668265 -56.81855428 67.922164 -48.83251953 58.53173828 C-45.26667979 54.33314325 -41.78025391 50.07412002 -38.3046875 45.80078125 C-35.77966925 42.73224213 -33.20515231 39.70960188 -30.625 36.6875 C-26.84207872 32.25148823 -23.19456875 27.73407279 -19.625 23.125 C-13.47696326 15.19407752 -7.10199566 7.10199566 0 0 Z " fill="#1A7BE8" transform="translate(528,12)"/>
<path d="M0 0 C6.35155403 -0.107062 12.43721345 0.26228174 18.73564148 1.04953003 C19.6742314 1.16245836 20.61282132 1.2753867 21.57985336 1.3917371 C24.70321492 1.76888115 27.82557919 2.15370938 30.94799805 2.53857422 C33.19566521 2.8116342 35.44338809 3.08423588 37.69116211 3.35641479 C43.7803109 4.09522408 49.86860121 4.84089304 55.95671821 5.58815145 C61.04130778 6.21157957 66.12631186 6.83158838 71.21132118 7.45158207 C83.8894878 8.99740809 96.56684546 10.54973895 109.24383406 12.10518672 C119.56267646 13.37112005 129.88225801 14.63087632 140.20239258 15.88623047 C152.19984149 17.34561622 164.19676001 18.80923555 176.19295532 20.27890027 C182.53859574 21.05628566 188.88443773 21.8319162 195.23084068 22.60305405 C201.19461197 23.32794641 207.15760965 24.0588989 213.12006378 24.79454422 C215.30874997 25.06356641 217.49769888 25.33046088 219.68692207 25.59507751 C222.67379349 25.9564551 225.65962072 26.32549888 228.64530945 26.69650269 C229.51272048 26.79962355 230.38013152 26.90274442 231.27382773 27.00899017 C238.30444984 27.89660934 243.5448958 28.82591314 248.3125 34.4375 C249.47265625 35.78714844 249.47265625 35.78714844 250.65625 37.1640625 C253.64688399 40.78272963 256.59997749 44.4308622 259.55078125 48.08203125 C262.75680918 51.90165304 266.14989784 55.5246441 269.55786133 59.16333008 C273.45968389 63.35293609 277.07310178 67.72154714 280.65625 72.1875 C283.33208171 75.39849805 286.14358276 78.45029137 289 81.5 C293.43832674 86.23866464 297.5914225 91.12119326 301.65625 96.1875 C304.33210192 99.39852231 307.14385352 102.4500116 310 105.5 C316.00822853 111.92562436 321.56648429 118.64821846 327.015625 125.5546875 C331.16016171 130.79246815 335.45966245 135.79308988 340.01953125 140.67578125 C342 143 342 143 345 148 C244.35 148 143.7 148 40 148 C40 304.42 40 460.84 40 622 C115.57 622 191.14 622 269 622 C267.23705934 629.05176263 263.45925549 635.82676229 257.19189453 639.76416016 C253.85535786 641.1515318 250.52010939 642.26248837 247.0625 643.3125 C245.77352754 643.7389514 244.48612655 644.17017684 243.20019531 644.60571289 C240.37609822 645.55955503 237.54658588 646.49449678 234.71337891 647.42089844 C226.73244006 650.06167049 218.8632623 653.02342246 210.97750854 655.93319702 C208.2996232 656.91922811 205.61921009 657.89802036 202.93774414 658.87426758 C201.66245598 659.33934219 201.66245598 659.33934219 200.36140442 659.81381226 C198.78050216 660.39032779 197.19930244 660.96602872 195.61772156 661.54067993 C191.8028456 662.93606159 188.01951927 664.38595863 184.25512695 665.91259766 C178.23809224 668.33532206 172.13704429 670.50746526 166.02734375 672.68359375 C164.76321485 673.13563882 163.49916886 673.58791577 162.23519897 674.04040527 C159.54140269 675.00458631 156.84731596 675.9679487 154.15298462 676.93063354 C131.16142466 685.14720821 108.20971747 693.46129015 85.3125 701.9375 C67.8659394 708.39461074 50.39087916 714.75166659 32.84561157 720.93554688 C21.1038046 725.07617051 9.39737854 729.30579811 -2.28125 733.62109375 C-3.26087959 733.98294203 -3.26087959 733.98294203 -4.26029968 734.35210037 C-10.12247413 736.51794337 -15.98372353 738.68625629 -21.84057617 740.86645508 C-25.43437146 742.20407914 -29.02963463 743.53769705 -32.625 744.87109375 C-33.7030188 745.27444443 -34.7810376 745.6777951 -35.89172363 746.09336853 C-36.88909546 746.46273026 -37.88646729 746.83209198 -38.9140625 747.21264648 C-40.2127124 747.69652077 -40.2127124 747.69652077 -41.53759766 748.19017029 C-44.01197735 749.00393909 -46.44457091 749.51051821 -49 750 C-47.51120069 741.50680498 -45.20345314 733.27436675 -42.83251953 724.99560547 C-42.40802325 723.50249375 -41.98386391 722.00928621 -41.56001282 720.51599121 C-40.41215288 716.47579982 -39.25939551 712.43702119 -38.10558176 708.39852667 C-36.88484848 704.12317888 -35.66817481 699.84667571 -34.45089722 695.57034302 C-32.39741212 688.35877528 -30.34078276 681.14810999 -28.28222656 673.93798828 C-25.93471281 665.71566536 -23.59183292 657.49203386 -21.25165284 649.26762092 C-18.97337768 641.26114145 -16.69181598 633.25560186 -14.40884018 625.25046158 C-13.45206344 621.89542079 -12.49629205 618.54009641 -11.54144669 615.18450546 C-4.57900844 590.72300375 2.63529102 566.34336592 10 542 C8.73649791 540.8880752 7.47207648 539.77719502 6.20727539 538.66674805 C5.50325089 538.04801315 4.79922638 537.42927826 4.0738678 536.79179382 C1.26787279 534.36745196 -1.62957874 532.0801149 -4.5625 529.8125 C-5.78302641 528.86128539 -7.00306153 527.90944013 -8.22265625 526.95703125 C-8.84414551 526.47186035 -9.46563477 525.98668945 -10.10595703 525.48681641 C-13.25575338 523.01423845 -16.37739394 520.50676664 -19.5 518 C-24.31252939 514.13967235 -29.14311796 510.30437487 -34 506.5 C-39.49425554 502.1963732 -44.95026754 497.84710501 -50.39453125 493.48046875 C-54.57733421 490.12903035 -58.78051354 486.80510565 -63 483.5 C-67.85688673 479.69562145 -72.6871684 475.85995554 -77.5 472 C-82.56734813 467.9379099 -87.64750517 463.89288074 -92.75 459.875 C-93.62688477 459.18277344 -93.62688477 459.18277344 -94.52148438 458.4765625 C-96.96712416 456.55478165 -99.41021147 454.72652569 -102 453 C-100.64946864 449.48648979 -99.11778924 446.15597693 -97.3828125 442.81640625 C-96.86477051 441.81826904 -96.34672852 440.82013184 -95.81298828 439.79174805 C-95.25595215 438.72609619 -94.69891602 437.66044434 -94.125 436.5625 C-93.25270752 434.88957886 -93.25270752 434.88957886 -92.36279297 433.18286133 C-88.2098604 425.24588293 -83.96528262 417.3634513 -79.65600586 409.51049805 C-75.62139477 402.15596342 -71.64401626 394.77180462 -67.6875 387.375 C-67.21922287 386.49968628 -67.21922287 386.49968628 -66.7414856 385.60668945 C-65.46775515 383.22557228 -64.19426113 380.84432897 -62.92118835 378.46286011 C-60.61404102 374.14706508 -58.30397117 369.83284445 -55.9921875 365.51953125 C-55.661548 364.90259399 -55.33090851 364.28565674 -54.99024963 363.65002441 C-53.4182944 360.71700278 -51.8462413 357.7840336 -50.27416992 354.85107422 C-45.83876622 346.5730654 -41.41712787 338.28776991 -37 330 C-61.27291717 321.4810904 -85.55786302 313.02255174 -110 305 C-109.41181424 298.38130713 -107.22999715 292.55942554 -104.94140625 286.3515625 C-104.31810928 284.63612495 -104.31810928 284.63612495 -103.68222046 282.8860321 C-102.55133637 279.7780013 -101.41441877 276.67231003 -100.27463913 273.56753922 C-99.07280859 270.28924308 -97.87885204 267.00808043 -96.68383789 263.72729492 C-93.79957714 255.8143949 -90.90101133 247.90677151 -88 240 C-87.58697632 238.8736615 -87.17395264 237.747323 -86.74841309 236.58685303 C-83.41628468 227.5000897 -80.08024051 218.4147737 -76.73583984 209.33251953 C-70.75626076 193.09035385 -64.84175659 176.82496918 -58.93740845 160.55532837 C-51.94770214 141.30038616 -44.87722554 122.0760384 -37.78082275 102.86019897 C-32.02386362 87.26646586 -26.32695471 71.65385339 -20.73654175 55.99966431 C-16.28571619 43.53791946 -11.76130921 31.10464461 -7.1875 18.6875 C-6.87982697 17.85110992 -6.57215393 17.01471985 -6.25515747 16.15298462 C-5.39420714 13.8136929 -4.53148926 11.47506277 -3.66796875 9.13671875 C-3.4114151 8.43984955 -3.15486145 7.74298035 -2.89053345 7.0249939 C-1.11599774 2.23199549 -1.11599774 2.23199549 0 0 Z " fill="#F53362" transform="translate(110,0)"/>
<path d="M0 0 C5.20021749 1.565114 8.75324194 4.86382027 12.8125 8.3125 C14.33028243 9.58256531 15.84852278 10.85208356 17.3671875 12.12109375 C18.13643555 12.76675293 18.90568359 13.41241211 19.69824219 14.07763672 C23.25034134 17.04424986 26.84180938 19.96149574 30.4375 22.875 C31.10821533 23.41938721 31.77893066 23.96377441 32.4699707 24.5246582 C36.73532083 27.9839245 41.0184749 31.42013539 45.3125 34.84375 C49.5979956 38.28211275 53.8553727 41.75501727 58.1171875 45.22265625 C62.50320198 48.78939633 66.9071901 52.33207265 71.328125 55.85546875 C74.12289236 58.09863729 76.90175056 60.3605123 79.67944336 62.62475586 C85.39249644 67.28155764 91.12427987 71.90621251 96.9375 76.4375 C103.03360088 81.19238838 109.00475987 86.09029965 114.96240234 91.01708984 C119.39190062 94.67957543 123.84824354 98.30244999 128.34765625 101.87890625 C131.91528658 104.73195967 135.45695613 107.61650674 139 110.5 C143.32090365 114.01580965 147.64434055 117.5272445 152 121 C157.06702315 125.03992386 162.09054617 129.13271376 167.1171875 133.22265625 C171.50320198 136.78939633 175.9071901 140.33207265 180.328125 143.85546875 C183.12289236 146.09863729 185.90175056 148.3605123 188.67944336 150.62475586 C194.39249644 155.28155764 200.12427987 159.90621251 205.9375 164.4375 C212.02168248 169.18309216 217.98192435 174.07053498 223.92724609 178.98852539 C229.24058936 183.38279393 234.59247809 187.72181313 240 192 C238.47260916 195.42673696 236.45668829 198.05841282 234.0625 200.9375 C233.25941406 201.90558594 232.45632813 202.87367188 231.62890625 203.87109375 C228.46269235 207.64789202 225.27728905 211.40849411 222.0859375 215.1640625 C219.20567451 218.55779856 216.36861057 221.98187378 213.5625 225.4375 C207.66177891 232.68215757 201.53848779 239.73490003 195.43847656 246.81152344 C190.41838502 252.63835913 185.40626351 258.46234648 180.5625 264.4375 C176.42003621 269.54227843 172.11880901 274.49622682 167.79931641 279.45068359 C163.87737896 283.95959326 160.06960885 288.54707017 156.30859375 293.19140625 C153.08070647 297.11839602 149.75768578 300.96082059 146.43896484 304.81103516 C143.4274197 308.31254253 140.46933791 311.84795521 137.5625 315.4375 C133.42003621 320.54227843 129.11880901 325.49622682 124.79931641 330.45068359 C120.88833937 334.94699247 117.09076021 339.52132399 113.33984375 344.15234375 C110.43881467 347.68297848 107.47554953 351.15711549 104.5 354.625 C103.97075928 355.24189697 103.44151855 355.85879395 102.89624023 356.49438477 C99.14723255 360.85276745 99.14723255 360.85276745 98 362 C97.88947365 365.18522972 97.84502087 368.34923892 97.84178162 371.53529358 C97.83684364 372.54886899 97.83190566 373.5624444 97.82681805 374.60673422 C97.81135988 378.03087119 97.80306004 381.4549893 97.79467773 384.87915039 C97.78510574 387.32261829 97.77509607 389.76608451 97.76467896 392.20954895 C97.74318173 397.48446667 97.72475178 402.75938167 97.70907402 408.03431892 C97.68640112 415.66107445 97.65825477 423.28780197 97.62875474 430.91453379 C97.58104711 443.28716708 97.53779156 455.6598118 97.49731445 468.0324707 C97.45797563 480.05428965 97.41655331 492.07609843 97.37231445 504.09790039 C97.36822804 505.20866866 97.36822804 505.20866866 97.36405908 506.34187669 C97.35037987 510.05665586 97.33665955 513.77143487 97.32291877 517.4862138 C97.2089042 548.32412158 97.10217972 579.16205064 97 610 C96.67 610 96.34 610 96 610 C96 453.58 96 297.16 96 136 C40.23 136 -15.54 136 -73 136 C-84.85546875 122.95898437 -84.85546875 122.95898437 -88.125 119.0625 C-88.87007813 118.18722656 -89.61515625 117.31195313 -90.3828125 116.41015625 C-92 114 -92 114 -92 110 C-90.94946289 108.34350586 -90.94946289 108.34350586 -89.47265625 106.71484375 C-88.93261963 106.10785645 -88.39258301 105.50086914 -87.83618164 104.87548828 C-87.2508667 104.23595215 -86.66555176 103.59641602 -86.0625 102.9375 C-84.85302263 101.58044584 -83.64469276 100.22236813 -82.4375 98.86328125 C-81.84453125 98.20021973 -81.2515625 97.5371582 -80.640625 96.85400391 C-77.80529062 93.64990728 -75.12801218 90.32229208 -72.43359375 87 C-64.66773866 77.42668265 -56.81855428 67.922164 -48.83251953 58.53173828 C-45.26667979 54.33314325 -41.78025391 50.07412002 -38.3046875 45.80078125 C-35.77966925 42.73224213 -33.20515231 39.70960188 -30.625 36.6875 C-26.84207872 32.25148823 -23.19456875 27.73407279 -19.625 23.125 C-13.47696326 15.19407752 -7.10199566 7.10199566 0 0 Z " fill="#2373E7" transform="translate(528,12)"/>
<path d="M0 0 C0.33 0 0.66 0 1 0 C1 57.75 1 115.5 1 175 C76.57 175 152.14 175 230 175 C228.23705934 182.05176263 224.45925549 188.82676229 218.19189453 192.76416016 C214.85535786 194.1515318 211.52010939 195.26248837 208.0625 196.3125 C206.77352754 196.7389514 205.48612655 197.17017684 204.20019531 197.60571289 C201.37609822 198.55955503 198.54658588 199.49449678 195.71337891 200.42089844 C187.73244006 203.06167049 179.8632623 206.02342246 171.97750854 208.93319702 C169.2996232 209.91922811 166.61921009 210.89802036 163.93774414 211.87426758 C163.08755203 212.18431732 162.23735992 212.49436707 161.36140442 212.81381226 C159.78050216 213.39032779 158.19930244 213.96602872 156.61772156 214.54067993 C152.8028456 215.93606159 149.01951927 217.38595863 145.25512695 218.91259766 C139.23809224 221.33532206 133.13704429 223.50746526 127.02734375 225.68359375 C125.76321485 226.13563882 124.49916886 226.58791577 123.23519897 227.04040527 C120.54140269 228.00458631 117.84731596 228.9679487 115.15298462 229.93063354 C92.16142466 238.14720821 69.20971747 246.46129015 46.3125 254.9375 C28.8659394 261.39461074 11.39087916 267.75166659 -6.15438843 273.93554688 C-17.8961954 278.07617051 -29.60262146 282.30579811 -41.28125 286.62109375 C-41.9343364 286.86232594 -42.58742279 287.10355812 -43.26029968 287.35210037 C-49.12247413 289.51794337 -54.98372353 291.68625629 -60.84057617 293.86645508 C-64.43437146 295.20407914 -68.02963463 296.53769705 -71.625 297.87109375 C-72.7030188 298.27444443 -73.7810376 298.6777951 -74.89172363 299.09336853 C-75.88909546 299.46273026 -76.88646729 299.83209198 -77.9140625 300.21264648 C-79.2127124 300.69652077 -79.2127124 300.69652077 -80.53759766 301.19017029 C-83.01197735 302.00393909 -85.44457091 302.51051821 -88 303 C-86.51120069 294.50680498 -84.20345314 286.27436675 -81.83251953 277.99560547 C-81.40802325 276.50249375 -80.98386391 275.00928621 -80.56001282 273.51599121 C-79.41215288 269.47579982 -78.25939551 265.43702119 -77.10558176 261.39852667 C-75.88484848 257.12317888 -74.66817481 252.84667571 -73.45089722 248.57034302 C-71.39741212 241.35877528 -69.34078276 234.14810999 -67.28222656 226.93798828 C-64.93471281 218.71566536 -62.59183292 210.49203386 -60.25165284 202.26762092 C-57.97337768 194.26114145 -55.69181598 186.25560186 -53.40884018 178.25046158 C-52.45206344 174.89542079 -51.49629205 171.54009641 -50.54144669 168.18450546 C-45.572378 150.7268604 -40.53900146 133.28912306 -35.35542846 115.8938067 C-34.83659864 114.15160595 -34.31920135 112.40897784 -33.80336785 110.66588759 C-28.96758818 94.3441203 -28.96758818 94.3441203 -25.80711555 86.9497509 C-24.45101429 83.67381396 -23.51407498 80.28594761 -22.5625 76.875 C-22.14193523 75.40327079 -21.72002494 73.93192551 -21.296875 72.4609375 C-21.08482422 71.72327148 -20.87277344 70.98560547 -20.65429688 70.22558594 C-19.59786319 66.63213463 -18.45185505 63.06783554 -17.3125 59.5 C-15.7714071 54.66048908 -14.45894685 49.85172532 -13.4609375 44.87109375 C-12.69759708 41.77244917 -11.25489448 38.92808711 -10 36 C-9.41653516 33.74661856 -8.93473342 31.48657865 -8.46484375 29.20703125 C-6.84978541 21.5388971 -6.84978541 21.5388971 -5.0703125 18.31640625 C-3.50125126 14.92059122 -2.74065423 11.37933549 -1.875 7.75 C-1.69324219 7.00492187 -1.51148438 6.25984375 -1.32421875 5.4921875 C-0.87852501 3.6624974 -0.43868041 1.83138425 0 0 Z " fill="#8A54A6" transform="translate(149,447)"/>
<path d="M0 0 C9.65647589 2.44834312 19.06211237 5.58319467 28.5 8.75 C29.29758728 9.0166748 30.09517456 9.28334961 30.91693115 9.55810547 C44.47887538 14.09498914 57.96397899 18.77448681 71.24169922 24.09375 C72.13492889 24.45146484 73.02815857 24.80917969 73.94845581 25.17773438 C74.96397018 25.58475586 74.96397018 25.58475586 76 26 C76.09318499 37.71890994 76.16400912 49.43772995 76.20724869 61.15693665 C76.22801438 66.60020144 76.25612787 72.04321047 76.30175781 77.48632812 C76.3456121 82.75131704 76.36921967 88.01606184 76.37950897 93.28121948 C76.38682997 95.27761674 76.40112334 97.2740025 76.42292023 99.27029419 C76.56255532 112.60416073 76.35558748 125.89118326 70 138 C69.29255748 140.32129575 68.63017223 142.65654702 68 145 C67.67 146.2271875 67.34 147.454375 67 148.71875 C66.67 149.9665625 66.34 151.214375 66 152.5 C64.28428654 158.98754151 62.47885096 165.4438561 60.5625 171.875 C60.33691406 172.63554687 60.11132812 173.39609375 59.87890625 174.1796875 C59.15509784 176.50230828 58.39948091 178.80735257 57.625 181.11328125 C56.46250732 184.58169024 55.3417213 188.06067009 54.24609375 191.55078125 C53.94896484 192.49630859 53.65183594 193.44183594 53.34570312 194.41601562 C52.73430848 196.36590434 52.12497163 198.31643934 51.51757812 200.26757812 C51.07381836 201.67620117 51.07381836 201.67620117 50.62109375 203.11328125 C50.3573999 203.95673096 50.09370605 204.80018066 49.82202148 205.66918945 C49.03793368 207.89244051 48.10335071 209.91949001 47 212 C43.13772805 210.32197408 40.01326681 207.79655142 36.75 205.1875 C36.1422876 204.70611572 35.5345752 204.22473145 34.90844727 203.72875977 C29.53132301 199.45645849 24.21279833 195.11227481 18.89355469 190.76831055 C13.78442648 186.60712175 8.58400856 182.5887986 3.34375 178.59375 C-1.20122129 175.09761824 -5.62032798 171.44618338 -10.05859375 167.81640625 C-14.15607022 164.47393504 -18.29479942 161.20594499 -22.5 158 C-27.41054782 154.25631503 -32.22012395 150.40889911 -37 146.5 C-46.48045637 138.75120115 -56.1813485 131.31585798 -66 124 C-64.64946864 120.48648979 -63.11778924 117.15597693 -61.3828125 113.81640625 C-60.60574951 112.31920044 -60.60574951 112.31920044 -59.81298828 110.79174805 C-59.25595215 109.72609619 -58.69891602 108.66044434 -58.125 107.5625 C-57.25270752 105.88957886 -57.25270752 105.88957886 -56.36279297 104.18286133 C-52.2098604 96.24588293 -47.96528262 88.3634513 -43.65600586 80.51049805 C-39.6213922 73.15595875 -35.64443191 65.77158537 -31.6875 58.375 C-31.37498291 57.79112518 -31.06246582 57.20725037 -30.74047852 56.60568237 C-27.49623249 50.54441055 -24.2561887 44.48090557 -21.0201416 38.41525269 C-14.14685957 25.53429284 -7.25917968 12.66913743 0 0 Z " fill="#EF791B" transform="translate(74,329)"/>
<path d="M0 0 C32.67 0 65.34 0 99 0 C99 12.21 99 24.42 99 37 C89.76 37 80.52 37 71 37 C71 77.92 71 118.84 71 161 C80.24 161 89.48 161 99 161 C99 172.88 99 184.76 99 197 C66.33 197 33.66 197 0 197 C0 185.12 0 173.24 0 161 C9.24 161 18.48 161 28 161 C28 120.08 28 79.16 28 37 C18.76 37 9.52 37 0 37 C0 24.79 0 12.58 0 0 Z " fill="#FCFCFC" transform="translate(224,209)"/>
<path d="M0 0 C14.52 0 29.04 0 44 0 C44.0679133 18.25544303 44.12309554 36.51078262 44.15543652 54.76632023 C44.17085703 63.2440807 44.19185358 71.72175668 44.22631836 80.19946289 C44.25636912 87.59497353 44.27560993 94.99042293 44.28226548 102.38599294 C44.2861514 106.29614854 44.29518132 110.20612904 44.31719017 114.1162281 C44.33780414 117.80900946 44.3437845 121.50154637 44.33932304 125.19437981 C44.34052065 127.17034935 44.35653068 129.1462933 44.3732605 131.12219238 C44.30554119 151.08053702 39.11367107 167.64610317 25.1875 182.25 C9.72107047 197.00188509 -11.52892808 200.55254887 -32.23046875 200.27734375 C-54.37216745 199.54184855 -71.18494341 188.64995262 -86.8046875 173.7890625 C-88 172 -88 172 -87.74316406 170.08642578 C-86.91870029 167.77175186 -86.00000146 166.59133984 -84.3046875 164.828125 C-83.75683594 164.24998047 -83.20898438 163.67183594 -82.64453125 163.07617188 C-82.06058594 162.47353516 -81.47664063 161.87089844 -80.875 161.25 C-79.68410662 159.99554042 -78.4939961 158.74033716 -77.3046875 157.484375 C-76.73202148 156.88302734 -76.15935547 156.28167969 -75.56933594 155.66210938 C-70.82485956 150.6371568 -66.39641193 145.32898416 -62 140 C-61.071875 140.825 -60.14375 141.65 -59.1875 142.5 C-46.10048341 153.73099199 -46.10048341 153.73099199 -30 159 C-29.37996094 159.07476562 -28.75992188 159.14953125 -28.12109375 159.2265625 C-21.16494434 159.69943133 -14.97282159 157.50071309 -9 154 C-6.42256616 151.21672943 -4.57694735 148.63657371 -3.3125 145.0625 C-3.08175781 144.43472656 -2.85101563 143.80695313 -2.61328125 143.16015625 C-1.29579769 138.51959315 -0.87312057 133.96164208 -0.84178162 129.15335083 C-0.8319928 128.00919205 -0.82220398 126.86503326 -0.81211853 125.686203 C-0.80636307 124.44542496 -0.8006076 123.20464691 -0.79467773 121.92626953 C-0.78477814 120.60866135 -0.77487854 119.29105316 -0.76467896 117.93351746 C-0.73773326 114.33276707 -0.71666802 110.73200371 -0.69667697 107.1312089 C-0.67475336 103.36356167 -0.64739597 99.59595394 -0.62062073 95.82833862 C-0.5707798 88.69932588 -0.5258092 81.5702911 -0.48259836 74.44123542 C-0.43315232 66.32272408 -0.37826159 58.20425238 -0.32291877 50.08577943 C-0.2092308 33.39055491 -0.10308192 16.69529389 0 0 Z " fill="#FDFDFD" transform="translate(442,209)"/>
<path d="M0 0 C58.74 0 117.48 0 178 0 C178 9.9 178 19.8 178 30 C119.26 30 60.52 30 0 30 C0 20.1 0 10.2 0 0 Z " fill="#FBFBFB" transform="translate(194,533)"/>
</svg>
